<mxfile host="65bd71144e">
    <diagram id="2HzBa3S6A1pDbrekO2D-" name="Page-1">
        <mxGraphModel dx="348" dy="507" grid="1" gridSize="10" guides="1" tooltips="1" connect="1" arrows="1" fold="1" page="1" pageScale="1" pageWidth="827" pageHeight="1169" math="0" shadow="0">
            <root>
                <mxCell id="1jP16g1uXEkhixYt5RZE-0"/>
                <mxCell id="1jP16g1uXEkhixYt5RZE-1" parent="1jP16g1uXEkhixYt5RZE-0"/>
                <mxCell id="1jP16g1uXEkhixYt5RZE-2" value="Actor" style="shape=umlActor;verticalLabelPosition=bottom;verticalAlign=top;html=1;outlineConnect=0;" parent="1jP16g1uXEkhixYt5RZE-1" vertex="1">
                    <mxGeometry x="280" y="420" width="30" height="60" as="geometry"/>
                </mxCell>
                <mxCell id="1jP16g1uXEkhixYt5RZE-4" value="client" style="ellipse;shape=cloud;whiteSpace=wrap;html=1;" parent="1jP16g1uXEkhixYt5RZE-1" vertex="1">
                    <mxGeometry x="50" y="330" width="120" height="80" as="geometry"/>
                </mxCell>
                <mxCell id="1jP16g1uXEkhixYt5RZE-5" value="books" style="ellipse;shape=cloud;whiteSpace=wrap;html=1;" parent="1jP16g1uXEkhixYt5RZE-1" vertex="1">
                    <mxGeometry x="220" y="250" width="120" height="80" as="geometry"/>
                </mxCell>
                <mxCell id="u-bB_vnRUGTwPzScQM-_-0" value="author" style="ellipse;shape=cloud;whiteSpace=wrap;html=1;" parent="1jP16g1uXEkhixYt5RZE-1" vertex="1">
                    <mxGeometry x="350" y="320" width="120" height="80" as="geometry"/>
                </mxCell>
                <mxCell id="u-bB_vnRUGTwPzScQM-_-1" value="author" style="ellipse;shape=cloud;whiteSpace=wrap;html=1;" parent="1jP16g1uXEkhixYt5RZE-1" vertex="1">
                    <mxGeometry x="440" y="190" width="120" height="80" as="geometry"/>
                </mxCell>
            </root>
        </mxGraphModel>
    </diagram>
    <diagram id="vZNqUPKRFbjuw_vCGtmQ" name="Page-2">
        <mxGraphModel dx="515" dy="556" grid="1" gridSize="10" guides="1" tooltips="1" connect="1" arrows="1" fold="1" page="1" pageScale="1" pageWidth="827" pageHeight="1169" math="0" shadow="0">
            <root>
                <mxCell id="f2ynZmCxth7A3jHJRGwy-0"/>
                <mxCell id="f2ynZmCxth7A3jHJRGwy-1" parent="f2ynZmCxth7A3jHJRGwy-0"/>
                <mxCell id="f2ynZmCxth7A3jHJRGwy-15" style="edgeStyle=none;html=1;entryX=0;entryY=0.5;entryDx=0;entryDy=0;targetPerimeterSpacing=2;" edge="1" parent="f2ynZmCxth7A3jHJRGwy-1" source="f2ynZmCxth7A3jHJRGwy-2" target="f2ynZmCxth7A3jHJRGwy-12">
                    <mxGeometry relative="1" as="geometry"/>
                </mxCell>
                <mxCell id="f2ynZmCxth7A3jHJRGwy-2" value="Client" style="rounded=1;whiteSpace=wrap;html=1;arcSize=0;" vertex="1" parent="f2ynZmCxth7A3jHJRGwy-1">
                    <mxGeometry x="90" y="190" width="120" height="60" as="geometry"/>
                </mxCell>
                <mxCell id="f2ynZmCxth7A3jHJRGwy-4" value="books" style="rounded=1;whiteSpace=wrap;html=1;" vertex="1" parent="f2ynZmCxth7A3jHJRGwy-1">
                    <mxGeometry x="670" y="185" width="120" height="60" as="geometry"/>
                </mxCell>
                <mxCell id="f2ynZmCxth7A3jHJRGwy-6" value="client_id" style="ellipse;whiteSpace=wrap;html=1;" vertex="1" parent="f2ynZmCxth7A3jHJRGwy-1">
                    <mxGeometry x="30" y="160" width="85" height="20" as="geometry"/>
                </mxCell>
                <mxCell id="f2ynZmCxth7A3jHJRGwy-7" value="first_name" style="ellipse;whiteSpace=wrap;html=1;" vertex="1" parent="f2ynZmCxth7A3jHJRGwy-1">
                    <mxGeometry x="130" y="160" width="85" height="20" as="geometry"/>
                </mxCell>
                <mxCell id="f2ynZmCxth7A3jHJRGwy-8" value="last_name" style="ellipse;whiteSpace=wrap;html=1;" vertex="1" parent="f2ynZmCxth7A3jHJRGwy-1">
                    <mxGeometry x="230" y="160" width="85" height="20" as="geometry"/>
                </mxCell>
                <mxCell id="f2ynZmCxth7A3jHJRGwy-9" value="phone" style="ellipse;whiteSpace=wrap;html=1;" vertex="1" parent="f2ynZmCxth7A3jHJRGwy-1">
                    <mxGeometry x="230" y="230" width="85" height="20" as="geometry"/>
                </mxCell>
                <mxCell id="f2ynZmCxth7A3jHJRGwy-10" value="address" style="ellipse;whiteSpace=wrap;html=1;" vertex="1" parent="f2ynZmCxth7A3jHJRGwy-1">
                    <mxGeometry x="115" y="280" width="85" height="20" as="geometry"/>
                </mxCell>
                <mxCell id="f2ynZmCxth7A3jHJRGwy-11" value="email" style="ellipse;whiteSpace=wrap;html=1;" vertex="1" parent="f2ynZmCxth7A3jHJRGwy-1">
                    <mxGeometry y="240" width="85" height="20" as="geometry"/>
                </mxCell>
                <mxCell id="f2ynZmCxth7A3jHJRGwy-16" style="edgeStyle=none;html=1;entryX=0;entryY=0.5;entryDx=0;entryDy=0;" edge="1" parent="f2ynZmCxth7A3jHJRGwy-1" source="f2ynZmCxth7A3jHJRGwy-12" target="f2ynZmCxth7A3jHJRGwy-4">
                    <mxGeometry relative="1" as="geometry"/>
                </mxCell>
                <mxCell id="f2ynZmCxth7A3jHJRGwy-12" value="buy" style="rhombus;whiteSpace=wrap;html=1;" vertex="1" parent="f2ynZmCxth7A3jHJRGwy-1">
                    <mxGeometry x="440" y="180" width="80" height="70" as="geometry"/>
                </mxCell>
                <mxCell id="f2ynZmCxth7A3jHJRGwy-19" style="edgeStyle=none;html=1;targetPerimeterSpacing=2;entryX=0.25;entryY=0.286;entryDx=0;entryDy=0;entryPerimeter=0;" edge="1" parent="f2ynZmCxth7A3jHJRGwy-1" source="f2ynZmCxth7A3jHJRGwy-18" target="f2ynZmCxth7A3jHJRGwy-12">
                    <mxGeometry relative="1" as="geometry"/>
                </mxCell>
                <mxCell id="f2ynZmCxth7A3jHJRGwy-18" value="id" style="ellipse;whiteSpace=wrap;html=1;" vertex="1" parent="f2ynZmCxth7A3jHJRGwy-1">
                    <mxGeometry x="390" y="170" width="66" height="20" as="geometry"/>
                </mxCell>
                <mxCell id="f2ynZmCxth7A3jHJRGwy-30" style="edgeStyle=none;html=1;entryX=0.125;entryY=0.714;entryDx=0;entryDy=0;entryPerimeter=0;targetPerimeterSpacing=2;" edge="1" parent="f2ynZmCxth7A3jHJRGwy-1" source="f2ynZmCxth7A3jHJRGwy-20" target="f2ynZmCxth7A3jHJRGwy-12">
                    <mxGeometry relative="1" as="geometry"/>
                </mxCell>
                <mxCell id="f2ynZmCxth7A3jHJRGwy-20" value="buy_date" style="ellipse;whiteSpace=wrap;html=1;" vertex="1" parent="f2ynZmCxth7A3jHJRGwy-1">
                    <mxGeometry x="360" y="250" width="80" height="30" as="geometry"/>
                </mxCell>
                <mxCell id="f2ynZmCxth7A3jHJRGwy-28" style="edgeStyle=none;html=1;entryX=0.931;entryY=0.65;entryDx=0;entryDy=0;entryPerimeter=0;targetPerimeterSpacing=2;" edge="1" parent="f2ynZmCxth7A3jHJRGwy-1" source="f2ynZmCxth7A3jHJRGwy-23" target="f2ynZmCxth7A3jHJRGwy-12">
                    <mxGeometry relative="1" as="geometry"/>
                </mxCell>
                <mxCell id="f2ynZmCxth7A3jHJRGwy-23" value="fk_book_id" style="ellipse;whiteSpace=wrap;html=1;" vertex="1" parent="f2ynZmCxth7A3jHJRGwy-1">
                    <mxGeometry x="500" y="230" width="90" height="30" as="geometry"/>
                </mxCell>
                <mxCell id="f2ynZmCxth7A3jHJRGwy-27" style="edgeStyle=none;html=1;entryX=1;entryY=0;entryDx=0;entryDy=0;targetPerimeterSpacing=2;" edge="1" parent="f2ynZmCxth7A3jHJRGwy-1" source="f2ynZmCxth7A3jHJRGwy-25" target="f2ynZmCxth7A3jHJRGwy-12">
                    <mxGeometry relative="1" as="geometry"/>
                </mxCell>
                <mxCell id="f2ynZmCxth7A3jHJRGwy-25" value="fk_client_id" style="ellipse;whiteSpace=wrap;html=1;" vertex="1" parent="f2ynZmCxth7A3jHJRGwy-1">
                    <mxGeometry x="510" y="150" width="90" height="30" as="geometry"/>
                </mxCell>
                <mxCell id="f2ynZmCxth7A3jHJRGwy-29" style="edgeStyle=none;html=1;targetPerimeterSpacing=2;" edge="1" parent="f2ynZmCxth7A3jHJRGwy-1" source="f2ynZmCxth7A3jHJRGwy-26" target="f2ynZmCxth7A3jHJRGwy-12">
                    <mxGeometry relative="1" as="geometry"/>
                </mxCell>
                <mxCell id="f2ynZmCxth7A3jHJRGwy-26" value="payment_method" style="ellipse;whiteSpace=wrap;html=1;" vertex="1" parent="f2ynZmCxth7A3jHJRGwy-1">
                    <mxGeometry x="440" y="280" width="110" height="30" as="geometry"/>
                </mxCell>
                <mxCell id="f2ynZmCxth7A3jHJRGwy-39" style="edgeStyle=none;html=1;entryX=0.142;entryY=0.025;entryDx=0;entryDy=0;entryPerimeter=0;targetPerimeterSpacing=2;" edge="1" parent="f2ynZmCxth7A3jHJRGwy-1" source="f2ynZmCxth7A3jHJRGwy-31" target="f2ynZmCxth7A3jHJRGwy-4">
                    <mxGeometry relative="1" as="geometry"/>
                </mxCell>
                <mxCell id="f2ynZmCxth7A3jHJRGwy-31" value="book_id" style="ellipse;whiteSpace=wrap;html=1;" vertex="1" parent="f2ynZmCxth7A3jHJRGwy-1">
                    <mxGeometry x="630" y="120" width="80" height="20" as="geometry"/>
                </mxCell>
                <mxCell id="f2ynZmCxth7A3jHJRGwy-38" style="edgeStyle=none;html=1;targetPerimeterSpacing=2;" edge="1" parent="f2ynZmCxth7A3jHJRGwy-1" source="f2ynZmCxth7A3jHJRGwy-32">
                    <mxGeometry relative="1" as="geometry">
                        <mxPoint x="690" y="250" as="targetPoint"/>
                    </mxGeometry>
                </mxCell>
                <mxCell id="f2ynZmCxth7A3jHJRGwy-32" value="genre" style="ellipse;whiteSpace=wrap;html=1;" vertex="1" parent="f2ynZmCxth7A3jHJRGwy-1">
                    <mxGeometry x="640" y="275" width="90" height="30" as="geometry"/>
                </mxCell>
                <mxCell id="f2ynZmCxth7A3jHJRGwy-40" style="edgeStyle=none;html=1;entryX=0.808;entryY=0.025;entryDx=0;entryDy=0;entryPerimeter=0;targetPerimeterSpacing=2;" edge="1" parent="f2ynZmCxth7A3jHJRGwy-1" source="f2ynZmCxth7A3jHJRGwy-33" target="f2ynZmCxth7A3jHJRGwy-4">
                    <mxGeometry relative="1" as="geometry"/>
                </mxCell>
                <mxCell id="f2ynZmCxth7A3jHJRGwy-33" value="author" style="ellipse;whiteSpace=wrap;html=1;" vertex="1" parent="f2ynZmCxth7A3jHJRGwy-1">
                    <mxGeometry x="740" y="110" width="87" height="30" as="geometry"/>
                </mxCell>
                <mxCell id="f2ynZmCxth7A3jHJRGwy-36" style="edgeStyle=none;html=1;entryX=1;entryY=0.25;entryDx=0;entryDy=0;targetPerimeterSpacing=2;" edge="1" parent="f2ynZmCxth7A3jHJRGwy-1" source="f2ynZmCxth7A3jHJRGwy-34" target="f2ynZmCxth7A3jHJRGwy-4">
                    <mxGeometry relative="1" as="geometry"/>
                </mxCell>
                <mxCell id="f2ynZmCxth7A3jHJRGwy-34" value="publisher" style="ellipse;whiteSpace=wrap;html=1;" vertex="1" parent="f2ynZmCxth7A3jHJRGwy-1">
                    <mxGeometry x="810" y="190" width="87" height="30" as="geometry"/>
                </mxCell>
                <mxCell id="f2ynZmCxth7A3jHJRGwy-37" style="edgeStyle=none;html=1;entryX=0.942;entryY=1.025;entryDx=0;entryDy=0;entryPerimeter=0;targetPerimeterSpacing=2;" edge="1" parent="f2ynZmCxth7A3jHJRGwy-1" source="f2ynZmCxth7A3jHJRGwy-35" target="f2ynZmCxth7A3jHJRGwy-4">
                    <mxGeometry relative="1" as="geometry"/>
                </mxCell>
                <mxCell id="f2ynZmCxth7A3jHJRGwy-35" value="category" style="ellipse;whiteSpace=wrap;html=1;" vertex="1" parent="f2ynZmCxth7A3jHJRGwy-1">
                    <mxGeometry x="770" y="275" width="90" height="30" as="geometry"/>
                </mxCell>
                <mxCell id="tLrqTAEOIw0a5C43e1dC-1" style="edgeStyle=none;html=1;entryX=0;entryY=1;entryDx=0;entryDy=0;targetPerimeterSpacing=2;" edge="1" parent="f2ynZmCxth7A3jHJRGwy-1" source="tLrqTAEOIw0a5C43e1dC-0" target="f2ynZmCxth7A3jHJRGwy-4">
                    <mxGeometry relative="1" as="geometry"/>
                </mxCell>
                <mxCell id="tLrqTAEOIw0a5C43e1dC-2" style="edgeStyle=none;html=1;exitX=1;exitY=0;exitDx=0;exitDy=0;targetPerimeterSpacing=2;" edge="1" parent="f2ynZmCxth7A3jHJRGwy-1" source="tLrqTAEOIw0a5C43e1dC-0" target="f2ynZmCxth7A3jHJRGwy-4">
                    <mxGeometry relative="1" as="geometry"/>
                </mxCell>
                <mxCell id="tLrqTAEOIw0a5C43e1dC-0" value="titel" style="ellipse;whiteSpace=wrap;html=1;" vertex="1" parent="f2ynZmCxth7A3jHJRGwy-1">
                    <mxGeometry x="590" y="245" width="90" height="30" as="geometry"/>
                </mxCell>
            </root>
        </mxGraphModel>
    </diagram>
    <diagram id="73kO-1TZpKKhs5elcFMW" name="Page-3">
        <mxGraphModel dx="515" dy="556" grid="1" gridSize="10" guides="1" tooltips="1" connect="1" arrows="1" fold="1" page="1" pageScale="1" pageWidth="827" pageHeight="1169" math="0" shadow="0">
            <root>
                <mxCell id="RimiSJq40mfRmjjwHTjB-0"/>
                <mxCell id="RimiSJq40mfRmjjwHTjB-1" parent="RimiSJq40mfRmjjwHTjB-0"/>
                <mxCell id="RimiSJq40mfRmjjwHTjB-2" value="client" style="swimlane;fontStyle=0;childLayout=stackLayout;horizontal=1;startSize=30;fillColor=none;horizontalStack=0;resizeParent=1;resizeParentMax=0;resizeLast=0;collapsible=1;marginBottom=0;" vertex="1" parent="RimiSJq40mfRmjjwHTjB-1">
                    <mxGeometry x="70" y="50" width="170" height="200" as="geometry">
                        <mxRectangle x="70" y="70" width="60" height="26" as="alternateBounds"/>
                    </mxGeometry>
                </mxCell>
                <mxCell id="RimiSJq40mfRmjjwHTjB-3" value="client_id integer" style="text;strokeColor=none;fillColor=none;align=left;verticalAlign=top;spacingLeft=4;spacingRight=4;overflow=hidden;rotatable=0;points=[[0,0.5],[1,0.5]];portConstraint=eastwest;" vertex="1" parent="RimiSJq40mfRmjjwHTjB-2">
                    <mxGeometry y="30" width="170" height="26" as="geometry"/>
                </mxCell>
                <mxCell id="RimiSJq40mfRmjjwHTjB-4" value="first_name varchar" style="text;strokeColor=none;fillColor=none;align=left;verticalAlign=top;spacingLeft=4;spacingRight=4;overflow=hidden;rotatable=0;points=[[0,0.5],[1,0.5]];portConstraint=eastwest;" vertex="1" parent="RimiSJq40mfRmjjwHTjB-2">
                    <mxGeometry y="56" width="170" height="26" as="geometry"/>
                </mxCell>
                <mxCell id="RimiSJq40mfRmjjwHTjB-5" value="last_name varchar&#10;" style="text;strokeColor=none;fillColor=none;align=left;verticalAlign=top;spacingLeft=4;spacingRight=4;overflow=hidden;rotatable=0;points=[[0,0.5],[1,0.5]];portConstraint=eastwest;" vertex="1" parent="RimiSJq40mfRmjjwHTjB-2">
                    <mxGeometry y="82" width="170" height="28" as="geometry"/>
                </mxCell>
                <mxCell id="RimiSJq40mfRmjjwHTjB-15" value="email varchar" style="text;strokeColor=none;fillColor=none;align=left;verticalAlign=top;spacingLeft=4;spacingRight=4;overflow=hidden;rotatable=0;points=[[0,0.5],[1,0.5]];portConstraint=eastwest;" vertex="1" parent="RimiSJq40mfRmjjwHTjB-2">
                    <mxGeometry y="110" width="170" height="30" as="geometry"/>
                </mxCell>
                <mxCell id="RimiSJq40mfRmjjwHTjB-17" value="phone varchar (string)" style="text;strokeColor=none;fillColor=none;align=left;verticalAlign=top;spacingLeft=4;spacingRight=4;overflow=hidden;rotatable=0;points=[[0,0.5],[1,0.5]];portConstraint=eastwest;" vertex="1" parent="RimiSJq40mfRmjjwHTjB-2">
                    <mxGeometry y="140" width="170" height="30" as="geometry"/>
                </mxCell>
                <mxCell id="RimiSJq40mfRmjjwHTjB-19" value="address varchar  (string)" style="text;strokeColor=none;fillColor=none;align=left;verticalAlign=top;spacingLeft=4;spacingRight=4;overflow=hidden;rotatable=0;points=[[0,0.5],[1,0.5]];portConstraint=eastwest;" vertex="1" parent="RimiSJq40mfRmjjwHTjB-2">
                    <mxGeometry y="170" width="170" height="30" as="geometry"/>
                </mxCell>
                <mxCell id="RimiSJq40mfRmjjwHTjB-20" value="buy" style="swimlane;fontStyle=0;childLayout=stackLayout;horizontal=1;startSize=30;fillColor=none;horizontalStack=0;resizeParent=1;resizeParentMax=0;resizeLast=0;collapsible=1;marginBottom=0;" vertex="1" parent="RimiSJq40mfRmjjwHTjB-1">
                    <mxGeometry x="350" y="50" width="170" height="170" as="geometry">
                        <mxRectangle x="70" y="70" width="60" height="26" as="alternateBounds"/>
                    </mxGeometry>
                </mxCell>
                <mxCell id="RimiSJq40mfRmjjwHTjB-21" value="id_int" style="text;strokeColor=none;fillColor=none;align=left;verticalAlign=top;spacingLeft=4;spacingRight=4;overflow=hidden;rotatable=0;points=[[0,0.5],[1,0.5]];portConstraint=eastwest;" vertex="1" parent="RimiSJq40mfRmjjwHTjB-20">
                    <mxGeometry y="30" width="170" height="26" as="geometry"/>
                </mxCell>
                <mxCell id="RimiSJq40mfRmjjwHTjB-22" value="buy_date date" style="text;strokeColor=none;fillColor=none;align=left;verticalAlign=top;spacingLeft=4;spacingRight=4;overflow=hidden;rotatable=0;points=[[0,0.5],[1,0.5]];portConstraint=eastwest;" vertex="1" parent="RimiSJq40mfRmjjwHTjB-20">
                    <mxGeometry y="56" width="170" height="26" as="geometry"/>
                </mxCell>
                <mxCell id="RimiSJq40mfRmjjwHTjB-23" value="payment_method varchar" style="text;strokeColor=none;fillColor=none;align=left;verticalAlign=top;spacingLeft=4;spacingRight=4;overflow=hidden;rotatable=0;points=[[0,0.5],[1,0.5]];portConstraint=eastwest;" vertex="1" parent="RimiSJq40mfRmjjwHTjB-20">
                    <mxGeometry y="82" width="170" height="28" as="geometry"/>
                </mxCell>
                <mxCell id="RimiSJq40mfRmjjwHTjB-24" value="fk_client_id int" style="text;strokeColor=none;fillColor=none;align=left;verticalAlign=top;spacingLeft=4;spacingRight=4;overflow=hidden;rotatable=0;points=[[0,0.5],[1,0.5]];portConstraint=eastwest;" vertex="1" parent="RimiSJq40mfRmjjwHTjB-20">
                    <mxGeometry y="110" width="170" height="30" as="geometry"/>
                </mxCell>
                <mxCell id="RimiSJq40mfRmjjwHTjB-25" value="fk_book_id int" style="text;strokeColor=none;fillColor=none;align=left;verticalAlign=top;spacingLeft=4;spacingRight=4;overflow=hidden;rotatable=0;points=[[0,0.5],[1,0.5]];portConstraint=eastwest;" vertex="1" parent="RimiSJq40mfRmjjwHTjB-20">
                    <mxGeometry y="140" width="170" height="30" as="geometry"/>
                </mxCell>
                <mxCell id="RimiSJq40mfRmjjwHTjB-27" value="client" style="swimlane;fontStyle=0;childLayout=stackLayout;horizontal=1;startSize=30;fillColor=none;horizontalStack=0;resizeParent=1;resizeParentMax=0;resizeLast=0;collapsible=1;marginBottom=0;" vertex="1" parent="RimiSJq40mfRmjjwHTjB-1">
                    <mxGeometry x="590" y="50" width="170" height="200" as="geometry">
                        <mxRectangle x="70" y="70" width="60" height="26" as="alternateBounds"/>
                    </mxGeometry>
                </mxCell>
                <mxCell id="RimiSJq40mfRmjjwHTjB-28" value="book_id int" style="text;strokeColor=none;fillColor=none;align=left;verticalAlign=top;spacingLeft=4;spacingRight=4;overflow=hidden;rotatable=0;points=[[0,0.5],[1,0.5]];portConstraint=eastwest;" vertex="1" parent="RimiSJq40mfRmjjwHTjB-27">
                    <mxGeometry y="30" width="170" height="26" as="geometry"/>
                </mxCell>
                <mxCell id="RimiSJq40mfRmjjwHTjB-29" value="titel varchar" style="text;strokeColor=none;fillColor=none;align=left;verticalAlign=top;spacingLeft=4;spacingRight=4;overflow=hidden;rotatable=0;points=[[0,0.5],[1,0.5]];portConstraint=eastwest;" vertex="1" parent="RimiSJq40mfRmjjwHTjB-27">
                    <mxGeometry y="56" width="170" height="26" as="geometry"/>
                </mxCell>
                <mxCell id="RimiSJq40mfRmjjwHTjB-30" value="category varchar" style="text;strokeColor=none;fillColor=none;align=left;verticalAlign=top;spacingLeft=4;spacingRight=4;overflow=hidden;rotatable=0;points=[[0,0.5],[1,0.5]];portConstraint=eastwest;" vertex="1" parent="RimiSJq40mfRmjjwHTjB-27">
                    <mxGeometry y="82" width="170" height="28" as="geometry"/>
                </mxCell>
                <mxCell id="RimiSJq40mfRmjjwHTjB-31" value="author varchar" style="text;strokeColor=none;fillColor=none;align=left;verticalAlign=top;spacingLeft=4;spacingRight=4;overflow=hidden;rotatable=0;points=[[0,0.5],[1,0.5]];portConstraint=eastwest;" vertex="1" parent="RimiSJq40mfRmjjwHTjB-27">
                    <mxGeometry y="110" width="170" height="30" as="geometry"/>
                </mxCell>
                <mxCell id="RimiSJq40mfRmjjwHTjB-32" value="phone varchar (string)" style="text;strokeColor=none;fillColor=none;align=left;verticalAlign=top;spacingLeft=4;spacingRight=4;overflow=hidden;rotatable=0;points=[[0,0.5],[1,0.5]];portConstraint=eastwest;" vertex="1" parent="RimiSJq40mfRmjjwHTjB-27">
                    <mxGeometry y="140" width="170" height="30" as="geometry"/>
                </mxCell>
                <mxCell id="RimiSJq40mfRmjjwHTjB-33" value="address varchar  (string)" style="text;strokeColor=none;fillColor=none;align=left;verticalAlign=top;spacingLeft=4;spacingRight=4;overflow=hidden;rotatable=0;points=[[0,0.5],[1,0.5]];portConstraint=eastwest;" vertex="1" parent="RimiSJq40mfRmjjwHTjB-27">
                    <mxGeometry y="170" width="170" height="30" as="geometry"/>
                </mxCell>
            </root>
        </mxGraphModel>
    </diagram>
</mxfile>